<svg width="25" height="25" viewBox="0 0 25 25" fill="none" xmlns="http://www.w3.org/2000/svg">
<path d="M21.4468 6.03087C21.4457 6.03087 21.4445 6.03072 21.4434 6.03072H16.3965V5.4426C16.3965 4.46976 15.6473 3.67825 14.7266 3.67825H10.2734C9.35266 3.67825 8.60352 4.46976 8.60352 5.4426V6.03072H3.55664C3.24672 6.03072 3 6.29905 3 6.61884V19.5574C3 20.5302 3.74915 21.3217 4.66992 21.3217H20.3301C21.2509 21.3217 22 20.5302 22 19.5574V6.63124C22 6.63048 22 6.62971 22 6.62894C21.9787 6.24269 21.7539 6.03302 21.4468 6.03087ZM9.7168 5.4426C9.7168 5.11837 9.96656 4.85449 10.2734 4.85449H14.7266C15.0334 4.85449 15.2832 5.11837 15.2832 5.4426V6.03072H9.7168V5.4426ZM20.671 7.20695L18.9424 12.6859C18.8666 12.9265 18.6544 13.0881 18.4145 13.0881H15.2832V12.5C15.2832 12.1752 15.034 11.9119 14.7266 11.9119H10.2734C9.96598 11.9119 9.7168 12.1752 9.7168 12.5V13.0881H6.58555C6.34564 13.0881 6.13342 12.9265 6.05761 12.6859L4.32898 7.20695H20.671ZM14.1699 13.0881V14.2643H10.8301V13.0881H14.1699ZM20.8867 19.5574C20.8867 19.8816 20.637 20.1455 20.3301 20.1455H4.66992C4.36304 20.1455 4.11328 19.8816 4.11328 19.5574V10.2429L5.00144 13.0579C5.22903 13.7796 5.86568 14.2643 6.58555 14.2643H9.7168V14.8525C9.7168 15.1773 9.96598 15.4406 10.2734 15.4406H14.7266C15.034 15.4406 15.2832 15.1773 15.2832 14.8525V14.2643H18.4145C19.1343 14.2643 19.771 13.7796 19.9986 13.0579L20.8867 10.2429V19.5574Z" fill="#015989"/>
</svg>
