<svg width="25" height="25" viewBox="0 0 25 25" fill="none" xmlns="http://www.w3.org/2000/svg">
<path d="M20.9387 20.2212H20.2212V12.3281C20.2211 12.1847 20.1781 12.0446 20.0978 11.9259C20.0174 11.8071 19.9033 11.7151 19.7702 11.6617L12.5948 8.79155C12.418 8.72083 12.2204 8.72322 12.0455 8.79818C11.8705 8.87315 11.7325 9.01455 11.6617 9.19129C11.591 9.36803 11.5934 9.56562 11.6684 9.7406C11.7433 9.91557 11.8847 10.0536 12.0615 10.1243L18.7861 12.814V14.4808H13.7632C13.5729 14.4808 13.3904 14.5564 13.2558 14.6909C13.1213 14.8255 13.0457 15.008 13.0457 15.1983C13.0457 15.3886 13.1213 15.5711 13.2558 15.7057C13.3904 15.8403 13.5729 15.9159 13.7632 15.9159H18.7861V17.351H13.7632C13.5729 17.351 13.3904 17.4266 13.2558 17.5611C13.1213 17.6957 13.0457 17.8782 13.0457 18.0685C13.0457 18.2588 13.1213 18.4413 13.2558 18.5759C13.3904 18.7105 13.5729 18.7861 13.7632 18.7861H18.7861V20.2212H11.5532L10.173 3.65799C10.1581 3.47861 10.0763 3.3114 9.94383 3.18952C9.81137 3.06764 9.63793 2.99999 9.45793 3H6.58774C6.40774 2.99999 6.23431 3.06764 6.10185 3.18952C5.96939 3.3114 5.88757 3.47861 5.87263 3.65799L4.4925 20.2212H3.71755C3.52724 20.2212 3.34473 20.2968 3.21016 20.4313C3.0756 20.5659 3 20.7484 3 20.9387C3 21.129 3.0756 21.3115 3.21016 21.4461C3.34473 21.5807 3.52724 21.6562 3.71755 21.6562H20.9387C21.129 21.6562 21.3115 21.5807 21.4461 21.4461C21.5807 21.3115 21.6562 21.129 21.6562 20.9387C21.6562 20.7484 21.5807 20.5659 21.4461 20.4313C21.3115 20.2968 21.129 20.2212 20.9387 20.2212ZM8.79779 4.4351L9.03695 7.30529H7.00865L7.24788 4.4351H8.79779ZM6.88911 8.74038H9.15656L10.1132 20.2212H5.93248L6.88911 8.74038Z" fill="#015989"/>
</svg>
