<svg width="25" height="25" viewBox="0 0 25 25" fill="none" xmlns="http://www.w3.org/2000/svg">
<path d="M21.4579 16.6395C21.4081 16.4516 21.3196 16.2762 21.198 16.1247C21.0763 15.9732 20.9242 15.8488 20.7516 15.7598L17.1264 13.8801C16.8339 13.7249 16.4954 13.6801 16.1726 13.7538C15.8498 13.8276 15.5642 14.015 15.368 14.2818L14.7819 15.0853C14.7518 15.1271 14.7075 15.1564 14.6573 15.1677C14.6071 15.179 14.5545 15.1716 14.5094 15.1469C13.6474 14.6561 12.8583 14.0471 12.1649 13.3376C11.4558 12.6437 10.8472 11.8541 10.3567 10.9916C10.3319 10.9465 10.3245 10.8939 10.3359 10.8436C10.3472 10.7934 10.3765 10.7491 10.4182 10.7189L11.2183 10.1324C11.485 9.93611 11.6722 9.65039 11.7459 9.32741C11.8196 9.00443 11.7749 8.6657 11.6198 8.37299L9.75296 4.74852C9.66331 4.57553 9.53823 4.42338 9.38589 4.30199C9.23354 4.1806 9.05734 4.09269 8.86877 4.044C8.6802 3.99531 8.48349 3.98692 8.29146 4.01938C8.09943 4.05185 7.91639 4.12444 7.75428 4.23242L5.47719 5.75727C5.15744 5.9703 4.89926 6.26366 4.7285 6.60797C4.55774 6.95227 4.4804 7.33543 4.50422 7.71906C4.53436 8.36769 4.62164 9.01239 4.76505 9.64567C5.38341 12.0327 6.87509 14.4871 8.94704 16.5632C11.019 18.6394 13.4748 20.1261 15.8604 20.739C16.4933 20.8825 17.1376 20.9698 17.7858 21H17.9323C18.29 20.9992 18.642 20.9109 18.9577 20.7427C19.2733 20.5746 19.5431 20.3317 19.7434 20.0352L21.2615 17.7567C21.3711 17.5949 21.4452 17.4117 21.479 17.2191C21.5129 17.0266 21.5057 16.829 21.4579 16.6395ZM20.2856 17.1028L18.7763 19.3842C18.6762 19.5322 18.5391 19.6514 18.3787 19.7301C18.2184 19.8088 18.0402 19.8442 17.862 19.8329C17.2871 19.8063 16.7155 19.7308 16.1534 19.6071C13.9672 19.0382 11.7048 17.6629 9.77934 15.7275C7.85392 13.7921 6.4736 11.5371 5.90506 9.34949C5.78042 8.78716 5.70395 8.21522 5.67647 7.63989C5.66476 7.46189 5.70002 7.28393 5.77872 7.12387C5.85741 6.9638 5.97678 6.82725 6.12485 6.72791L8.40195 5.20891C8.43661 5.18569 8.47745 5.17343 8.51917 5.17372H8.57485C8.60371 5.18125 8.63064 5.19481 8.65388 5.21351C8.67712 5.23221 8.69613 5.25563 8.70966 5.28222L10.5853 8.90963C10.6086 8.95461 10.6152 9.00641 10.6039 9.05581C10.5926 9.10521 10.5642 9.149 10.5237 9.17941L9.72365 9.76589C9.45236 9.96786 9.26439 10.2623 9.19527 10.5935C9.12615 10.9247 9.18068 11.2697 9.34854 11.5635C9.89096 12.5122 10.5616 13.3815 11.3414 14.1469C12.1062 14.9273 12.975 15.5983 13.9232 16.141C14.2168 16.3089 14.5616 16.3635 14.8926 16.2943C15.2236 16.2252 15.5179 16.0371 15.7197 15.7656L16.3058 14.9621C16.3362 14.9216 16.38 14.8932 16.4294 14.8819C16.4787 14.8706 16.5305 14.8772 16.5754 14.9006L20.2006 16.7773C20.2272 16.7912 20.2505 16.8105 20.2691 16.834C20.2877 16.8575 20.3012 16.8846 20.3086 16.9137C20.3161 16.9427 20.3174 16.973 20.3124 17.0025C20.3074 17.0321 20.2963 17.0602 20.2797 17.0852L20.2856 17.1028Z" fill="#015989"/>
</svg>
