<svg width="25" height="25" viewBox="0 0 25 25" fill="none" xmlns="http://www.w3.org/2000/svg">
<path d="M12.656 2.60155L12.6559 2.60154C12.5522 2.59949 12.4478 2.59949 12.3441 2.60154L12.344 2.60155C9.93056 2.64894 7.77106 3.88688 6.55591 5.90558C5.31399 7.96878 5.28077 10.4378 6.46462 12.5238L11.8723 22.0524L11.8738 22.055L11.874 22.0553L11.8744 22.0559L12.656 2.60155ZM12.656 2.60155C15.0695 2.64894 17.229 3.88688 18.4441 5.90557L18.9581 5.59614M12.656 2.60155L18.9581 5.59614M18.9581 5.59614L18.4441 5.90557C19.686 7.96878 19.7192 10.4378 18.5354 12.5238L13.1277 22.0524L13.1262 22.0551L13.1261 22.0553L13.1258 22.0558L13.1255 22.0562L18.9581 5.59614ZM12.5001 22.4C12.2281 22.4 12.0008 22.2674 11.8746 22.0562L13.1255 22.0563C12.9993 22.2674 12.7719 22.4 12.5001 22.4ZM8.83238 8.56251C8.83238 10.5436 10.4988 12.1156 12.5 12.1156C14.5012 12.1156 16.1676 10.5435 16.1676 8.56251C16.1676 6.58148 14.5011 5.00939 12.5 5.00939C10.4988 5.00939 8.83238 6.58148 8.83238 8.56251Z" stroke="#015989" stroke-width="1.2"/>
</svg>
