<svg width="25" height="25" viewBox="0 0 25 25" fill="none" xmlns="http://www.w3.org/2000/svg">
<path d="M12.3579 13.1963L12.3567 13.1952C11.1052 12.0679 6.94012 8.52975 4.44786 6.4186C4.60569 6.29257 4.79834 6.225 5.00003 6.225H20C20.2017 6.225 20.3944 6.29257 20.5522 6.4186C18.0599 8.52979 13.8947 12.0683 12.6422 13.1967L12.6416 13.1972C12.5573 13.2734 12.5121 13.2746 12.5 13.2746C12.4888 13.2746 12.4433 13.2737 12.3579 13.1963ZM4.2953 6.57298L4.29531 6.57297L4.2953 6.57298Z" stroke="#015989" stroke-width="1.2"/>
<path d="M12.0683 13.2917L12.4792 13.7174L12.9107 13.3125L12.5 12.875L12.9107 13.3124L12.9107 13.3124L12.9109 13.3123L12.9112 13.3119L12.9124 13.3109L12.9163 13.3072L12.9307 13.2935L12.9849 13.2418C13.0321 13.1965 13.1009 13.1299 13.1891 13.0432C13.3654 12.8698 13.6193 12.616 13.9321 12.2913C15.056 11.1247 18.0696 8.59853 20.5214 6.62695C20.6394 6.70996 20.7889 6.81415 20.9 6.8848V17.6502C20.9 18.3515 20.42 18.775 20 18.775H5.00001C4.58001 18.775 4.1 18.3515 4.1 17.6502V6.95104C4.18819 6.94112 4.29198 6.93256 4.39707 6.92719C4.52295 6.92075 4.63715 6.9196 4.72081 6.92369L4.88882 7.06437C5.06386 7.21104 5.3153 7.42198 5.62071 7.67892C6.23161 8.19286 7.05814 8.8906 7.92107 9.62608C9.66203 11.1099 11.5077 12.7109 12.0683 13.2917ZM5 6.375L4.61553 6.83541C4.61551 6.83539 4.61549 6.83538 4.61547 6.83536L5 6.375Z" stroke="#015989" stroke-width="1.2"/>
</svg>
