<svg width="25" height="25" viewBox="0 0 25 25" fill="none" xmlns="http://www.w3.org/2000/svg">
<path d="M6.35151 7.15126L6.34036 7.16824C5.32347 8.34147 4.66289 9.78094 4.43679 11.3173C4.20895 12.8654 4.43196 14.4464 5.07916 15.8713C5.72636 17.2961 6.77036 18.5045 8.08634 19.3519C9.40232 20.1993 10.9346 20.65 12.5 20.65C14.0654 20.65 15.5977 20.1993 16.9137 19.3519C18.2296 18.5045 19.2736 17.2961 19.9208 15.8713C20.568 14.4464 20.791 12.8654 20.5632 11.3173C20.3354 9.76909 19.6663 8.31927 18.636 7.14112L18.6166 7.11889L18.6147 7.11793C18.5992 7.09912 18.582 7.08175 18.5633 7.06605C17.8016 6.21323 16.8685 5.53051 15.825 5.0625C14.7777 4.59282 13.6428 4.35 12.495 4.35C11.3472 4.35 10.2123 4.59282 9.16505 5.0625C8.1213 5.53059 7.18809 6.21347 6.42631 7.0665C6.39751 7.09105 6.37232 7.11959 6.35151 7.15126ZM17.2243 12.899H19.8341C19.7525 14.4294 19.1917 15.8958 18.2308 17.0906C17.7292 16.8073 17.2018 16.5722 16.6558 16.3887C17.0054 15.2572 17.1967 14.0829 17.2243 12.899ZM16.3908 17.1438C16.8364 17.2931 17.2686 17.4795 17.683 17.7011C16.9265 18.4557 16.0157 19.035 15.0153 19.4007C15.5584 18.8114 16.0278 18.0436 16.3908 17.1438ZM6.76367 17.0914C5.80232 15.8965 5.2413 14.4298 5.15966 12.899H7.76947C7.79695 14.0833 7.98825 15.2581 8.33794 16.3899C7.79217 16.5734 7.26504 16.8083 6.76367 17.0914ZM5.15975 12.0992C5.24265 10.5598 5.8104 9.08548 6.78212 7.88762C7.28057 8.16801 7.8043 8.40089 8.34636 8.58319C7.99133 9.72265 7.79716 10.9061 7.76947 12.0992H5.15975ZM12.8969 12.0992V9.22749C13.9095 9.2019 14.9159 9.06092 15.8965 8.80727C16.2238 9.87511 16.403 10.9827 16.4293 12.0992H12.8969ZM12.8969 8.42741V5.19137C13.9778 5.39975 14.9577 6.45015 15.6191 8.05213C14.7282 8.27658 13.8153 8.40244 12.8969 8.42741ZM12.0969 5.19137V8.42741C11.1784 8.40245 10.2656 8.27659 9.37469 8.05213C10.036 6.45015 11.0159 5.39975 12.0969 5.19137ZM9.0974 8.80732C10.078 9.06092 11.0843 9.20189 12.0969 9.22749V12.0992H8.56929C8.59406 10.983 8.77174 9.87536 9.0974 8.80732ZM9.09739 16.1658C8.77435 15.1058 8.59682 14.0068 8.56965 12.899H12.0969V15.7434C11.0842 15.7697 10.0779 15.9114 9.09739 16.1658ZM12.0969 16.5433V19.8068C11.0104 19.5968 10.0214 18.5365 9.36381 16.9212C10.2581 16.695 11.1747 16.5683 12.0969 16.5433ZM12.8969 19.8068V16.5433C13.8191 16.5683 14.7356 16.695 15.6299 16.9212C14.9724 18.5365 13.9834 19.5968 12.8969 19.8068ZM15.8963 16.1646C14.9158 15.9106 13.9095 15.7692 12.8969 15.7433V12.899H16.4241C16.3968 14.0064 16.2193 15.105 15.8963 16.1646ZM19.834 12.0992H17.2243C17.1966 10.9061 17.0024 9.72265 16.6474 8.58319C17.1895 8.40088 17.7132 8.16801 18.2116 7.88762C19.1834 9.08548 19.7511 10.5598 19.834 12.0992ZM16.378 7.82976C16.0174 6.94193 15.554 6.18151 15.0145 5.59773C16.0061 5.96075 16.9096 6.53382 17.662 7.27952C17.25 7.49807 16.8205 7.68212 16.378 7.82976ZM8.6169 7.82974C8.17444 7.6821 7.74501 7.49806 7.33303 7.27951C8.08446 6.53459 8.98671 5.96189 9.97697 5.59872C9.43862 6.18131 8.97687 6.94247 8.6169 7.82974ZM8.60542 17.1438C8.96716 18.0414 9.43255 18.8117 9.97579 19.3997C8.97732 19.0337 8.06836 18.4547 7.31323 17.7011C7.72759 17.4796 8.15983 17.2931 8.60542 17.1438Z" fill="#015989" stroke="#015989" stroke-width="0.3"/>
</svg>
